<svg width="24" height="24" viewBox="0 0 24 24" fill="none" xmlns="http://www.w3.org/2000/svg">
<path fill-rule="evenodd" clip-rule="evenodd" d="M7.50004 18.7942C6.09575 18.7942 4.7162 19.1639 3.50004 19.866C3.02175 20.1422 2.41016 19.9783 2.13402 19.5C1.85788 19.0217 2.02175 18.4101 2.50004 18.134C4.02024 17.2563 5.74468 16.7942 7.50004 16.7942C9.06563 16.7942 10.6066 17.1618 12 17.8639C13.3935 17.1618 14.9345 16.7942 16.5 16.7942C18.2554 16.7942 19.9799 17.2563 21.5 18.134C21.9783 18.4101 22.1422 19.0217 21.8661 19.5C21.5899 19.9783 20.9783 20.1422 20.5 19.866C19.2839 19.1639 17.9043 18.7942 16.5 18.7942C15.0958 18.7942 13.7162 19.1639 12.5 19.866C12.1906 20.0446 11.8094 20.0446 11.5 19.866C10.2839 19.1639 8.90434 18.7942 7.50004 18.7942Z" fill="black"/>
<path fill-rule="evenodd" clip-rule="evenodd" d="M7.50004 5.79422C6.09575 5.79422 4.7162 6.16387 3.50004 6.86602C3.02175 7.14216 2.41016 6.97828 2.13402 6.49999C1.85788 6.0217 2.02175 5.41011 2.50004 5.13397C4.02024 4.25628 5.74468 3.79422 7.50004 3.79422C9.06563 3.79422 10.6066 4.16177 12 4.86393C13.3935 4.16177 14.9345 3.79422 16.5 3.79422C18.2554 3.79422 19.9799 4.25628 21.5 5.13397C21.9783 5.41011 22.1422 6.0217 21.8661 6.49999C21.5899 6.97828 20.9783 7.14216 20.5 6.86602C19.2839 6.16387 17.9043 5.79422 16.5 5.79422C15.0958 5.79422 13.7162 6.16387 12.5 6.86602C12.1906 7.04465 11.8094 7.04465 11.5 6.86602C10.2839 6.16387 8.90434 5.79422 7.50004 5.79422Z" fill="black"/>
<path fill-rule="evenodd" clip-rule="evenodd" d="M3 5C3.55228 5 4 5.44772 4 6V19C4 19.5523 3.55228 20 3 20C2.44772 20 2 19.5523 2 19V6C2 5.44772 2.44772 5 3 5Z" fill="black"/>
<path fill-rule="evenodd" clip-rule="evenodd" d="M12 5C12.5523 5 13 5.44772 13 6V19C13 19.5523 12.5523 20 12 20C11.4477 20 11 19.5523 11 19V6C11 5.44772 11.4477 5 12 5Z" fill="black"/>
<path fill-rule="evenodd" clip-rule="evenodd" d="M21 5C21.5523 5 22 5.44772 22 6V19C22 19.5523 21.5523 20 21 20C20.4477 20 20 19.5523 20 19V6C20 5.44772 20.4477 5 21 5Z" fill="black"/>
</svg>
